<?xml version="1.0" standalone="no"?>
<!DOCTYPE svg PUBLIC "-//W3C//DTD SVG 20010904//EN"
 "http://www.w3.org/TR/2001/REC-SVG-20010904/DTD/svg10.dtd">
<svg version="1.0" xmlns="http://www.w3.org/2000/svg"
 width="512.000000pt" height="512.000000pt" viewBox="0 0 512.000000 512.000000"
 preserveAspectRatio="xMidYMid meet">
<metadata>
Created by potrace 1.16, written by Peter Selinger 2001-2019
</metadata>
<g transform="translate(0.000000,512.000000) scale(0.100000,-0.100000)"
fill="#000000" stroke="none">
<path d="M2395 4864 c-439 -43 -786 -162 -1114 -382 -157 -105 -206 -146 -352
-291 -140 -140 -190 -201 -291 -351 -194 -290 -303 -576 -364 -955 -22 -134
-25 -496 -5 -620 39 -249 89 -430 172 -624 263 -615 797 -1091 1444 -1289 101
-31 232 -60 380 -83 124 -20 486 -17 620 5 379 61 665 170 955 364 150 101
211 151 351 291 145 146 186 195 291 352 159 237 274 507 333 784 40 190 49
282 49 495 0 317 -47 573 -156 850 -76 193 -225 450 -349 602 -67 81 -266 280
-347 347 -152 124 -409 273 -602 349 -163 64 -326 107 -517 137 -95 15 -417
27 -498 19z m530 -413 c690 -140 1244 -628 1460 -1284 77 -234 90 -323 90
-612 -1 -233 -2 -259 -27 -375 -166 -776 -751 -1354 -1528 -1512 -102 -20
-143 -23 -360 -23 -217 0 -258 3 -360 23 -784 159 -1373 748 -1532 1532 -20
102 -23 143 -23 360 0 217 3 258 23 360 89 438 320 833 646 1107 248 208 553
356 861 418 167 33 164 33 415 30 187 -2 244 -6 335 -24z"/>
<path d="M2230 3095 l-535 -535 535 -535 535 -535 172 172 c95 95 172 176 171
180 -2 4 -160 167 -351 363 l-349 355 349 356 c191 195 349 358 351 362 1 4
-76 85 -171 180 l-172 172 -535 -535z"/>
</g>
</svg>
