<?xml version="1.0" standalone="no"?>
<!DOCTYPE svg PUBLIC "-//W3C//DTD SVG 20010904//EN"
 "http://www.w3.org/TR/2001/REC-SVG-20010904/DTD/svg10.dtd">
<svg version="1.0" xmlns="http://www.w3.org/2000/svg"
 width="512.000000pt" height="512.000000pt" viewBox="0 0 512.000000 512.000000"
 preserveAspectRatio="xMidYMid meet">
<metadata>
Created by potrace 1.16, written by Peter Selinger 2001-2019
</metadata>
<g transform="translate(0.000000,512.000000) scale(0.100000,-0.100000)"
fill="#000000" stroke="none">
<path d="M2395 4864 c-265 -26 -477 -74 -685 -156 -193 -76 -450 -225 -602
-349 -81 -67 -280 -266 -347 -347 -124 -152 -273 -409 -349 -602 -109 -277
-156 -533 -156 -850 0 -389 68 -684 241 -1038 58 -119 191 -325 271 -422 63
-76 264 -277 337 -336 258 -211 613 -383 934 -454 201 -44 300 -54 521 -54
215 0 277 6 475 45 565 112 1098 467 1427 949 210 307 324 605 389 1015 20
124 17 486 -5 620 -61 379 -170 665 -364 955 -101 150 -151 211 -291 351 -146
145 -195 186 -352 291 -283 190 -591 308 -946 363 -95 15 -417 27 -498 19z
m550 -418 c772 -164 1350 -750 1507 -1526 20 -102 23 -143 23 -360 0 -217 -3
-258 -23 -360 -159 -784 -748 -1373 -1532 -1532 -102 -20 -143 -23 -360 -23
-217 0 -258 3 -360 23 -777 158 -1362 736 -1528 1512 -25 116 -26 142 -27 375
0 223 3 263 23 365 32 158 100 359 167 493 295 587 824 962 1500 1061 17 2
134 3 260 1 202 -3 245 -6 350 -29z"/>
<path d="M2180 3455 l-175 -175 145 -147 c80 -82 239 -243 354 -360 l209 -211
-349 -356 c-192 -196 -350 -360 -352 -364 -1 -4 76 -85 171 -180 l172 -172
535 535 535 535 -535 535 -535 535 -175 -175z"/>
</g>
</svg>
